<svg width="22" height="22" viewBox="0 0 22 22" fill="none" xmlns="http://www.w3.org/2000/svg">
<path d="M10.9998 12.8333V20.1667H3.6665C3.6665 18.2218 4.43912 16.3565 5.81439 14.9812C7.18965 13.606 9.05492 12.8333 10.9998 12.8333ZM10.9998 11.9167C7.96109 11.9167 5.49984 9.45542 5.49984 6.41667C5.49984 3.37792 7.96109 0.916672 10.9998 0.916672C14.0386 0.916672 16.4998 3.37792 16.4998 6.41667C16.4998 9.45542 14.0386 11.9167 10.9998 11.9167ZM19.0922 19.0923L16.4998 21.6856L13.9075 19.0923C13.3946 18.5796 13.0453 17.9263 12.9037 17.215C12.7621 16.5037 12.8347 15.7664 13.1122 15.0963C13.3897 14.4262 13.8596 13.8535 14.4626 13.4506C15.0656 13.0476 15.7746 12.8326 16.4998 12.8326C17.2251 12.8326 17.934 13.0476 18.537 13.4506C19.14 13.8535 19.61 14.4262 19.8875 15.0963C20.165 15.7664 20.2375 16.5037 20.096 17.215C19.9544 17.9263 19.6051 18.5796 19.0922 19.0923ZM16.4998 15.5833C16.2567 15.5833 16.0236 15.6799 15.8517 15.8518C15.6797 16.0237 15.5832 16.2569 15.5832 16.5C15.5832 16.7431 15.6797 16.9763 15.8517 17.1482C16.0236 17.3201 16.2567 17.4167 16.4998 17.4167C16.743 17.4167 16.9761 17.3201 17.148 17.1482C17.3199 16.9763 17.4165 16.7431 17.4165 16.5C17.4165 16.2569 17.3199 16.0237 17.148 15.8518C16.9761 15.6799 16.743 15.5833 16.4998 15.5833Z" fill="url(#paint0_linear_430_1464)"/>
<defs>
<linearGradient id="paint0_linear_430_1464" x1="17.6336" y1="19.7975" x2="6.17545" y2="19.5403" gradientUnits="userSpaceOnUse">
<stop stop-color="#2AB0B6"/>
<stop offset="1" stop-color="#12AAB0"/>
</linearGradient>
</defs>
</svg>
