<svg width="200" height="37" viewBox="0 0 200 37" fill="none" xmlns="http://www.w3.org/2000/svg">
<g clip-path="url(#clip0_204_2342)">
<path d="M74.5853 35.1437L37.6729 18.0371L40.091 17.0028C40.5014 16.8274 40.8944 16.66 41.2753 16.4973L42.0841 16.1525C43.0079 15.7582 43.3193 15.625 43.7296 15.4442C44.3248 15.1811 44.9153 14.912 45.4844 14.6429L45.5259 14.6241L74.3316 2.36124L74.9334 3.45182L75.6538 5.07464L45.0512 18.1864L75.4878 32.2261L74.586 35.1437H74.5853Z" fill="white"/>
<path d="M1.75806 2.25882H1.13812V35.1396H1.75806V2.25882Z" fill="white"/>
<path d="M2.89617 1.1207H0V36.2777H2.89617V1.1207Z" fill="#121212"/>
<path d="M6.51673 17.4948C6.59372 17.5022 6.75975 14.4487 6.8287 13.9124C7.59057 12.0734 7.99493 10.9031 8.63629 9.67262C10.7344 5.6477 14.3175 2.84526 19.0929 2.06666C24.6716 1.15683 28.9061 3.44511 32.301 7.63338C34.5176 10.3682 35.7809 13.5315 35.8579 17.0744C35.9845 22.8902 36.0327 28.7079 36.0909 34.5257C36.0909 35.4001 36.0996 34.8718 36.0909 35.135C35.8405 35.135 35.6087 35.1365 35.3953 35.1396C35.3953 34.7172 35.3953 34.2948 35.3953 33.8723C35.3953 28.9516 35.394 24.031 35.3953 19.1103C35.3967 13.7444 33.5904 9.13436 29.4885 5.59883C25.3237 2.00841 19.1772 1.38646 14.4862 4.44197C9.60971 7.61798 7.25181 12.1812 7.06971 17.8871C6.89833 23.2671 6.89096 28.6524 6.80795 34.035C6.80259 34.4025 6.76644 34.7694 6.74502 35.137C6.63321 35.1336 6.52208 35.1303 6.41028 35.1269" fill="white"/>
<path d="M7.81617 36.3079L6.37612 36.2631L6.41093 35.1162L5.60957 35.0687C5.61693 34.9475 5.62564 34.8264 5.63367 34.7052C5.65108 34.4635 5.66714 34.2352 5.67049 34.0163C5.6966 32.3191 5.71602 30.5912 5.73409 28.9209C5.77426 25.2936 5.8151 21.5425 5.93293 17.8497C5.94766 17.3817 5.97644 16.9224 6.01929 16.4705C5.68321 16.6372 5.46697 16.9552 5.4201 17.221C5.4576 17.0088 5.53459 15.9155 5.58078 15.2621C5.63568 14.4842 5.67049 13.9955 5.69995 13.7672L5.71936 13.6165L5.77761 13.476C6.00188 12.9343 6.19938 12.4403 6.37411 12.0038C6.80794 10.9179 7.15071 10.0603 7.62738 9.14575C9.96453 4.66157 13.9714 1.74866 18.9094 0.94328C21.807 0.470627 24.5237 0.792647 26.9834 1.90064C29.2154 2.90553 31.3022 4.59329 33.1854 6.91705C35.6337 9.93708 36.9158 13.3467 36.9961 17.0503C37.1079 22.1866 37.1588 27.4072 37.209 32.4551L37.2237 33.942H37.2518L37.2331 35.0754C37.2331 35.0995 37.2318 35.1236 37.2297 35.1477C37.2297 35.1551 37.2298 35.1638 37.2291 35.1738L37.1923 36.2738H36.0916C35.8471 36.2738 35.621 36.2753 35.4135 36.2785L34.2579 36.2959V29.3306C34.2579 25.9236 34.2579 22.5173 34.2579 19.1103C34.2586 16.5335 33.8134 14.1796 32.9344 12.1142C32.0232 9.97323 30.614 8.07057 28.7461 6.46114C24.8758 3.12445 19.2676 2.68661 15.1081 5.39599C12.8721 6.85211 11.1596 8.65703 10.0188 10.7592C8.90341 12.8138 8.29418 15.2246 8.20849 17.924C8.09133 21.5927 8.05049 25.3318 8.01032 28.9476C7.99158 30.6207 7.97283 32.3506 7.94672 34.0531C7.94203 34.3356 7.92329 34.6068 7.90454 34.8685C7.89651 34.9803 7.88848 35.0928 7.88178 35.2046L7.81617 36.3092V36.3079ZM37.2231 35.21C37.2063 35.3325 37.1702 35.449 37.1179 35.5561C37.1708 35.449 37.207 35.3325 37.2231 35.21ZM34.9582 35.0961C34.9636 35.2294 34.9917 35.3566 35.0399 35.4751C34.999 35.3646 34.9709 35.2394 34.9602 35.0961H34.9582Z" fill="#121212"/>
<path d="M7.09248 2.35187H6.41028V35.1022H7.09248V2.35187Z" fill="white"/>
<path d="M8.23058 1.21375H5.27216V36.2403H8.23058V1.21375Z" fill="#121212"/>
<path d="M105.673 17.3676H76.6667C76.4692 19.6197 76.8829 21.738 77.5664 23.81C78.9087 27.8784 81.3811 31.0698 85.2467 32.9805C89.9632 35.3116 94.4694 34.6087 98.6784 31.6121C101.313 29.7362 103.317 26.901 104.06 23.9653C104.145 23.6313 104.286 23.571 104.739 23.5302C104.447 25.6805 103.465 27.3054 102.235 28.9643C100.161 31.7627 97.4787 33.8093 94.0229 34.612C89.2836 35.7133 85.1643 34.4561 81.5431 31.2506C78.4762 28.5365 76.7845 25.0867 76.186 21.1401C75.3846 15.8546 76.5997 11.0424 79.9217 6.74699C82.3264 3.63793 85.4569 1.67234 89.2388 1.24722C93.1606 0.806033 96.6091 1.71251 99.5889 3.85417C105.773 8.29951 105.673 17.3683 105.673 17.3683V17.3676ZM76.6687 16.6499C86.4049 16.6499 95.2025 16.5903 104.953 16.5903C104.767 13.8609 104.358 12.5835 103.724 10.8034C102.038 6.1699 97.7023 2.63371 92.2354 2.01176C85.7856 1.27802 80.7257 5.36184 78.3243 10.6896C77.4908 12.5387 77.0409 14.2324 76.6693 16.6493L76.6687 16.6499Z" fill="white"/>
<path d="M90.7493 36.1385C87.1622 36.1385 83.8242 34.7881 80.7895 32.1022C77.6536 29.3265 75.7262 25.6959 75.0614 21.3102C74.2085 15.6859 75.5408 10.5516 79.0221 6.05006C80.3269 4.36297 81.8265 3.00527 83.4794 2.01444C85.202 0.981429 87.0973 0.342745 89.1124 0.115791C93.2592 -0.350836 97.0076 0.595808 100.254 2.92961C102.999 4.90324 105.004 8.0344 106.051 11.9863C106.83 14.9247 106.813 17.2812 106.812 17.3803L106.8 18.5057H77.7561C77.7561 20.0308 78.0466 21.6302 78.6485 23.4532C79.9553 27.4138 82.3453 30.2765 85.7523 31.9603C87.8498 32.9973 89.96 33.4023 92.024 33.164C94.0157 32.9344 96.0328 32.1002 98.0198 30.6849C100.438 28.963 102.284 26.3467 102.959 23.6855C103.255 22.5219 104.224 22.4342 104.638 22.3967L106.061 22.2682L105.869 23.6835C105.716 24.8082 105.387 25.872 104.861 26.9358C104.336 27.9983 103.672 28.9402 103.151 29.6425C100.763 32.8634 97.7795 34.9086 94.2822 35.7214C93.0804 36.0006 91.9022 36.1398 90.7507 36.1398L90.7493 36.1385ZM90.766 3.06686C88.4945 3.06686 86.3154 3.73232 84.3973 5.02308C82.2663 6.45643 80.525 8.57801 79.3622 11.1589C78.7502 12.5172 78.3459 13.8113 78.0192 15.5125C82.4063 15.5098 86.6662 15.4964 90.7975 15.483C94.9697 15.4696 99.2718 15.4556 103.709 15.4536C103.504 13.652 103.156 12.6016 102.653 11.1903C101.885 9.08347 100.518 7.22031 98.698 5.80235C96.8215 4.34021 94.5419 3.42101 92.107 3.14385C91.6571 3.09297 91.2099 3.06753 90.766 3.06753V3.06686Z" fill="#121212"/>
<path d="M160.184 12.9249C160.09 12.2896 160.1 12.2883 159.994 11.6543C159.183 6.77978 156.378 3.59507 151.771 1.9207C149.572 1.12201 147.348 1.14143 145.063 1.47014C141.315 2.01041 138.249 3.50804 136.895 7.28122C136.094 9.51394 136.161 11.9743 137.805 14.0155C139.269 15.8318 141.095 16.6345 143.236 17.156C146.286 17.8992 149.433 18.2252 152.51 18.8806C154.761 19.36 156.66 19.8708 158.126 21.4755C160.206 23.7524 159.97 28.4013 157.844 30.6641C154.522 34.1976 150.161 34.6308 145.863 33.9787C140.197 33.1191 136.669 28.5419 136.153 23.1037C136.13 22.8633 136.147 22.866 136.1 22.4945C135.247 22.5212 135.904 22.4998 135.407 22.5259C135.498 23.1626 135.575 23.802 135.682 24.436C136.493 29.2562 139.247 32.4436 143.803 34.1447C146.276 35.068 148.802 34.9562 151.333 34.5853C154.803 34.0771 159.371 32.1504 160.132 27.1955C160.552 24.4714 159.606 21.2599 156.741 19.6659C154.345 18.333 152.684 18.0103 149.349 17.5122C146.404 17.0724 144.881 16.8026 142.028 15.9737C140.002 15.3853 138.027 14.3302 137.387 12.0693C136.293 8.2031 138.152 4.45 141.953 2.9276C144.02 2.10012 146.179 1.8966 148.393 1.95217C151.133 2.02046 153.505 3.02936 155.508 4.79679C157.939 6.9418 159.377 9.65252 159.525 12.9664L160.183 12.9256L160.184 12.9249Z" fill="white"/>
<path d="M148.053 35.9979C146.558 35.9979 144.985 35.7997 143.406 35.2106C138.404 33.3434 135.428 29.7818 134.56 24.6248C134.484 24.1742 134.423 23.7223 134.363 23.2858C134.34 23.1144 134.316 22.943 134.292 22.7723L134.287 22.7663L134.29 22.7576C134.287 22.7341 134.283 22.7107 134.28 22.6873L134.104 21.4548L135.347 21.3898C135.435 21.3851 135.478 21.3825 135.5 21.3811C135.387 21.3905 135.265 21.422 135.146 21.4769C135.28 21.4179 135.441 21.3771 135.635 21.3704C135.684 21.3684 135.775 21.3657 135.944 21.3604L137.101 21.3242L137.229 22.3532C137.261 22.6043 137.268 22.7181 137.275 22.8413C137.277 22.8834 137.279 22.9263 137.285 22.9959C137.524 25.5138 138.442 27.7693 139.94 29.518C141.493 31.3309 143.6 32.4844 146.032 32.8533C148.308 33.1988 150.248 33.1753 151.964 32.7817C153.959 32.3244 155.61 31.3765 157.013 29.8849C157.839 29.0058 158.366 27.5664 158.424 26.0327C158.482 24.5036 158.055 23.087 157.285 22.2434C156.043 20.8844 154.353 20.4372 152.272 19.9946C150.944 19.7121 149.567 19.4858 148.235 19.2676C146.505 18.9831 144.715 18.6898 142.965 18.2634C140.996 17.7833 138.737 16.9887 136.918 14.7312C135.175 12.5688 134.786 9.78709 135.823 6.89828C136.544 4.88851 137.768 3.31122 139.46 2.21059C140.897 1.27533 142.677 0.665433 144.901 0.344753C147.804 -0.0736718 150.043 0.0829864 152.159 0.851548C157.238 2.6973 160.252 6.26897 161.117 11.4681C161.186 11.8846 161.208 12.0439 161.239 12.2635C161.255 12.386 161.275 12.5306 161.31 12.7582L161.491 13.9841L158.44 14.1742L158.389 13.0173C158.26 10.1426 157.038 7.66417 154.755 5.65038C152.897 4.01149 150.747 3.14987 148.364 3.09029C145.953 3.02936 144.05 3.31389 142.377 3.98404C140.777 4.62473 139.559 5.7113 138.853 7.12725C138.152 8.53583 138.023 10.1372 138.482 11.76C138.903 13.247 140.131 14.2385 142.345 14.8818C145.148 15.6959 146.61 15.953 149.517 16.3875C152.815 16.8802 154.658 17.2056 157.295 18.6717C158.856 19.5407 160.042 20.8924 160.724 22.5808C161.317 24.0497 161.506 25.7502 161.258 27.3683C160.866 29.9203 159.568 31.981 157.4 33.4913C155.365 34.9093 153.068 35.481 151.498 35.7113C150.425 35.8687 149.264 35.9985 148.053 35.9985L148.053 35.9979Z" fill="#121212"/>
<path d="M133.954 13.1807C134.03 8.56197 130.9 4.41252 126.657 2.58752C121.248 0.261073 113.485 1.62213 109.919 9.67063C109.919 7.20158 109.95 1.85979 109.95 1.85979L109.275 1.87318V35.1229C110.102 35.1404 109.702 35.133 109.901 35.129C109.915 34.7728 109.909 34.4387 109.91 34.0484C109.924 27.4246 109.912 20.8007 109.93 14.1762C109.932 13.4411 110.048 12.7 110.171 11.9716C111.306 5.27281 117.721 1.06378 124.292 2.55137C129.067 3.63258 133.175 8.06052 133.27 13.2128L133.954 13.18V13.1807Z" fill="white"/>
<path d="M109.702 36.2684C109.643 36.2684 109.584 36.267 109.525 36.2657L108.137 36.2362V0.756498L111.095 0.698253L111.088 1.86583C111.088 1.89595 111.078 3.62053 111.069 5.55198C113.064 3.05281 115.39 1.79486 117.227 1.16153C120.401 0.0676036 124.002 0.206186 127.107 1.54113C131.964 3.6299 135.173 8.31492 135.093 13.1988L135.076 14.2659L132.154 14.4052L132.133 13.2336C132.092 11.0591 131.221 8.8813 129.677 7.10116C128.171 5.36519 126.169 4.14339 124.041 3.66137C121.144 3.00595 118.213 3.53952 115.787 5.16435C113.381 6.77512 111.786 9.26023 111.294 12.1618C111.177 12.8533 111.071 13.5282 111.069 14.1789C111.059 17.7626 111.058 21.4073 111.057 24.9321C111.057 27.92 111.055 31.0103 111.049 34.0497C111.049 34.1508 111.049 34.2479 111.049 34.3423C111.05 34.6221 111.051 34.8872 111.039 35.1738L110.996 36.2449L109.908 36.2664C110.004 36.263 110.116 36.2423 110.231 36.1994C110.06 36.257 109.882 36.2684 109.704 36.2684H109.702Z" fill="#121212"/>
<path d="M163.444 34.9663L162.898 34.1924C162.859 34.1368 162.74 33.9681 162.487 33.3495L162.051 32.283L192.622 19.1853L162.185 5.14559L163.087 2.228L199.999 19.3346L197.581 20.3689C197.175 20.543 196.786 20.709 196.408 20.8697C195.548 21.2359 194.736 21.582 193.937 21.9301C193.691 22.0373 193.448 22.1524 193.19 22.2749C192.853 22.4349 192.504 22.6003 192.14 22.7503L163.442 34.9669L163.444 34.9663Z" fill="white"/>
</g>
<defs>
<clipPath id="clip0_204_2342">
<rect width="200" height="36.3079" fill="white"/>
</clipPath>
</defs>
</svg>
