<svg width="160" height="30" viewBox="0 0 160 30" fill="none" xmlns="http://www.w3.org/2000/svg">
<g clip-path="url(#clip0_204_5280)">
<path d="M59.6682 28.115L30.1382 14.4297L32.0727 13.6023C32.401 13.4619 32.7154 13.328 33.0202 13.1979L33.6672 12.9221C34.4063 12.6066 34.6553 12.5 34.9836 12.3554C35.4598 12.1449 35.9321 11.9296 36.3874 11.7143L36.4206 11.6993L59.4652 1.88901L59.9467 2.76148L60.523 4.05974L36.0409 14.5492L60.3902 25.781L59.6687 28.115H59.6682Z" fill="#2AB0B6"/>
<path d="M1.4066 1.80707H0.910645V28.1117H1.4066V1.80707Z" fill="white"/>
<path d="M2.31693 0.896576H0V29.0222H2.31693V0.896576Z" fill="white"/>
<path d="M5.21309 13.9959C5.27468 14.0018 5.4075 11.559 5.46267 11.13C6.07216 9.65872 6.39565 8.72252 6.90874 7.73811C8.58726 4.51818 11.4537 2.27623 15.274 1.65335C19.737 0.925487 23.1246 2.75611 25.8405 6.10673C27.6138 8.29459 28.6245 10.8252 28.6861 13.6595C28.7873 18.3121 28.8259 22.9664 28.8725 27.6206C28.8725 28.3201 28.8794 27.8975 28.8725 28.108C28.6722 28.108 28.4867 28.1092 28.316 28.1117C28.316 27.7738 28.316 27.4358 28.316 27.0979C28.316 23.1613 28.3149 19.2248 28.316 15.2882C28.3171 10.9955 26.8721 7.30751 23.5905 4.47909C20.2587 1.60675 15.3415 1.10919 11.5887 3.5536C7.68748 6.09441 5.80116 9.74495 5.65548 14.3097C5.51837 18.6137 5.51248 22.9219 5.44607 27.228C5.44178 27.5221 5.41286 27.8156 5.39572 28.1096C5.30628 28.1069 5.21737 28.1042 5.12793 28.1016" fill="white"/>
<path d="M6.25279 29.0464L5.10075 29.0105L5.1286 28.093L4.48751 28.055C4.4934 27.9581 4.50036 27.8611 4.50679 27.7642C4.52071 27.5708 4.53357 27.3882 4.53625 27.2131C4.55713 25.8554 4.57267 24.473 4.58713 23.1367C4.61926 20.2349 4.65193 17.234 4.74619 14.2798C4.75798 13.9054 4.78101 13.538 4.81529 13.1765C4.54642 13.3098 4.37343 13.5642 4.33594 13.7768C4.36593 13.6071 4.42752 12.7325 4.46448 12.2097C4.5084 11.5874 4.53625 11.1964 4.55981 11.0138L4.57534 10.8933L4.62194 10.7808C4.80136 10.3475 4.95936 9.95224 5.09914 9.60304C5.4462 8.73432 5.72042 8.04823 6.10176 7.31662C7.97148 3.72928 11.1769 1.39895 15.1274 0.754642C17.4454 0.37652 19.6188 0.634136 21.5865 1.52053C23.3722 2.32444 25.0416 3.67465 26.5482 5.53366C28.5068 7.94969 29.5325 10.6774 29.5967 13.6403C29.6862 17.7493 29.7269 21.9258 29.7671 25.9641L29.7788 27.1536H29.8013L29.7863 28.0603C29.7863 28.0796 29.7853 28.0989 29.7837 28.1182C29.7837 28.1241 29.7837 28.131 29.7831 28.1391L29.7537 29.019H28.8732C28.6775 29.019 28.4966 29.0203 28.3306 29.0228L27.4062 29.0367V23.4645C27.4062 20.7389 27.4062 18.0139 27.4062 15.2883C27.4067 13.2268 27.0506 11.3437 26.3474 9.69141C25.6184 7.97861 24.491 6.45648 22.9967 5.16893C19.9005 2.49958 15.4139 2.1493 12.0864 4.31682C10.2975 5.48171 8.9275 6.92565 8.01486 8.60738C7.12258 10.2511 6.6352 12.1797 6.56664 14.3392C6.47292 17.2742 6.44025 20.2655 6.40811 23.1581C6.39311 24.4966 6.37812 25.8805 6.35723 27.2425C6.35348 27.4685 6.33848 27.6854 6.32349 27.8949C6.31706 27.9843 6.31063 28.0743 6.30528 28.1637L6.25279 29.0474V29.0464ZM29.7783 28.168C29.7649 28.266 29.736 28.3592 29.6942 28.4449C29.7365 28.3592 29.7654 28.266 29.7783 28.168ZM27.9664 28.077C27.9707 28.1835 27.9932 28.2853 28.0318 28.3801C27.9991 28.2917 27.9766 28.1916 27.968 28.077H27.9664Z" fill="white"/>
<path d="M5.67418 1.8815H5.12842V28.0817H5.67418V1.8815Z" fill="white"/>
<path d="M6.58451 0.971008H4.21777V28.9922H6.58451V0.971008Z" fill="white"/>
<path d="M84.5385 13.8941H61.3334C61.1754 15.6958 61.5064 17.3903 62.0532 19.048C63.127 22.3027 65.1049 24.8558 68.1974 26.3844C71.9706 28.2493 75.5756 27.6869 78.9428 25.2896C81.0508 23.7889 82.6533 21.5208 83.2483 19.1722C83.3158 18.905 83.4288 18.8568 83.7914 18.8241C83.5579 20.5444 82.7722 21.8442 81.7883 23.1714C80.1286 25.4102 77.983 27.0474 75.2183 27.6896C71.427 28.5706 68.1315 27.5648 65.2345 25.0004C62.781 22.8292 61.4276 20.0693 60.9488 16.9121C60.3077 12.6837 61.2798 8.83389 63.9374 5.3976C65.8612 2.91036 68.3656 1.33789 71.3911 0.997794C74.5285 0.644845 77.2873 1.37002 79.6712 3.08335C84.6183 6.63961 84.5385 13.8946 84.5385 13.8946V13.8941ZM61.335 13.3199C69.1239 13.3199 76.162 13.2723 83.9623 13.2723C83.8134 11.0887 83.4867 10.0668 82.9795 8.64269C81.6303 4.93593 78.1619 2.10698 73.7883 1.60943C68.6285 1.02243 64.5806 4.28948 62.6595 8.55164C61.9927 10.0309 61.6328 11.3859 61.3355 13.3194L61.335 13.3199Z" fill="white"/>
<path d="M72.5994 28.9108C69.7298 28.9108 67.0593 27.8305 64.6315 25.6818C62.1229 23.4612 60.5809 20.5568 60.0491 17.0482C59.3667 12.5487 60.4326 8.44133 63.2176 4.84007C64.2614 3.4904 65.4612 2.40424 66.7835 1.61157C68.1616 0.785167 69.6778 0.27422 71.2899 0.0926575C74.6073 -0.280644 77.606 0.476671 80.2031 2.34371C82.399 3.92261 84.003 6.42754 84.8407 9.58909C85.4636 11.9398 85.4502 13.825 85.4497 13.9043L85.44 14.8046H62.2048C62.2048 16.0247 62.4373 17.3042 62.9187 18.7626C63.9642 21.9311 65.8762 24.2212 68.6018 25.5682C70.2798 26.3978 71.968 26.7219 73.6192 26.5312C75.2125 26.3475 76.8262 25.6802 78.4158 24.5479C80.3504 23.1704 81.8275 21.0774 82.3674 18.9484C82.6036 18.0176 83.3791 17.9474 83.7106 17.9174L84.8487 17.8146L84.695 18.9468C84.5729 19.8466 84.3094 20.6976 83.889 21.5487C83.4691 22.3986 82.9372 23.1522 82.5211 23.714C80.6107 26.2907 78.2236 27.9269 75.4257 28.5771C74.4643 28.8005 73.5217 28.9119 72.6005 28.9119L72.5994 28.9108ZM72.6128 2.45351C70.7956 2.45351 69.0522 2.98588 67.5178 4.01848C65.813 5.16517 64.42 6.86243 63.4897 8.92711C63.0002 10.0138 62.6767 11.0491 62.4153 12.41C65.925 12.4079 69.3329 12.3972 72.638 12.3864C75.9757 12.3757 79.4174 12.3645 82.9672 12.3629C82.8033 10.9216 82.5248 10.0813 82.1226 8.95228C81.5083 7.2668 80.4141 5.77627 78.9584 4.6419C77.4571 3.47219 75.6335 2.73683 73.6856 2.5151C73.3257 2.4744 72.9679 2.45404 72.6128 2.45404V2.45351Z" fill="white"/>
<path d="M128.147 10.34C128.072 9.8317 128.08 9.83063 127.995 9.32343C127.346 5.42385 125.102 2.87608 121.416 1.53659C119.658 0.897642 117.878 0.913174 116.05 1.17615C113.052 1.60836 110.599 2.80646 109.516 5.825C108.875 7.61117 108.928 9.57944 110.244 11.2124C111.415 12.6655 112.875 13.3076 114.588 13.7248C117.028 14.3193 119.546 14.5802 122.008 15.1045C123.809 15.488 125.328 15.8966 126.501 17.1804C128.165 19.0019 127.976 22.721 126.275 24.5313C123.617 27.3581 120.129 27.7046 116.69 27.183C112.158 26.4953 109.335 22.8335 108.922 18.483C108.904 18.2907 108.918 18.2928 108.88 17.9956C108.198 18.017 108.723 17.9999 108.325 18.0208C108.398 18.5301 108.46 19.0416 108.545 19.5488C109.194 23.405 111.398 25.9549 115.042 27.3158C117.021 28.0544 119.042 27.9649 121.066 27.6682C123.843 27.2617 127.496 25.7203 128.106 21.7564C128.441 19.5772 127.684 17.008 125.393 15.7327C123.476 14.6664 122.147 14.4082 119.479 14.0098C117.123 13.6579 115.905 13.4421 113.622 12.779C112.001 12.3082 110.421 11.4642 109.909 9.65549C109.034 6.5625 110.521 3.56002 113.563 2.34211C115.215 1.68013 116.943 1.51731 118.714 1.56176C120.906 1.61639 122.804 2.42352 124.406 3.83746C126.351 5.55346 127.502 7.72204 127.62 10.3732L128.147 10.3405L128.147 10.34Z" fill="white"/>
<path d="M118.443 28.7983C117.246 28.7983 115.988 28.6397 114.725 28.1684C110.723 26.6747 108.342 23.8254 107.648 19.6998C107.587 19.3393 107.538 18.9778 107.49 18.6286C107.472 18.4915 107.453 18.3544 107.434 18.2178L107.429 18.213L107.432 18.206C107.429 18.1873 107.427 18.1686 107.424 18.1498L107.283 17.1638L108.278 17.1119C108.348 17.1081 108.383 17.106 108.4 17.1049C108.31 17.1124 108.212 17.1376 108.117 17.1815C108.224 17.1343 108.353 17.1017 108.508 17.0963C108.547 17.0947 108.62 17.0926 108.756 17.0883L109.68 17.0594L109.783 17.8826C109.808 18.0834 109.814 18.1744 109.82 18.273C109.821 18.3067 109.823 18.341 109.828 18.3967C110.019 20.411 110.754 22.2154 111.952 23.6144C113.194 25.0647 114.88 25.9875 116.826 26.2826C118.646 26.559 120.198 26.5402 121.571 26.2253C123.167 25.8595 124.488 25.1011 125.61 23.9079C126.271 23.2046 126.693 22.0531 126.739 20.8261C126.785 19.6028 126.444 18.4696 125.828 17.7947C124.834 16.7075 123.482 16.3497 121.817 15.9957C120.755 15.7697 119.654 15.5887 118.588 15.4141C117.204 15.1864 115.772 14.9518 114.372 14.6107C112.797 14.2267 110.99 13.5909 109.535 11.785C108.14 10.055 107.829 7.82968 108.659 5.51864C109.235 3.91082 110.214 2.64899 111.568 1.7685C112.718 1.02029 114.141 0.532373 115.921 0.275829C118.243 -0.0589096 120.034 0.0664166 121.727 0.681265C125.79 2.15786 128.201 5.01519 128.893 9.17453C128.949 9.50766 128.967 9.63513 128.991 9.8108C129.004 9.90881 129.02 10.0245 129.048 10.2066L129.193 11.1872L126.752 11.3393L126.711 10.4139C126.608 8.11407 125.63 6.13135 123.804 4.52032C122.318 3.20921 120.597 2.51992 118.691 2.47225C116.762 2.42351 115.24 2.65114 113.901 3.18725C112.621 3.69981 111.647 4.56906 111.083 5.70181C110.521 6.82868 110.419 8.10979 110.786 9.40804C111.122 10.5976 112.105 11.3908 113.876 11.9055C116.119 12.5567 117.288 12.7624 119.613 13.11C122.252 13.5042 123.727 13.7645 125.836 14.9374C127.085 15.6326 128.034 16.7139 128.579 18.0647C129.054 19.2397 129.205 20.6001 129.006 21.8946C128.693 23.9362 127.654 25.5848 125.92 26.793C124.292 27.9274 122.454 28.3848 121.199 28.569C120.34 28.6949 119.411 28.7988 118.442 28.7988L118.443 28.7983Z" fill="white"/>
<path d="M107.163 10.5446C107.224 6.8496 104.72 3.53004 101.326 2.07004C96.9983 0.208878 90.7882 1.29772 87.9352 7.73653C87.9352 5.76129 87.9598 1.48786 87.9598 1.48786L87.4199 1.49857V28.0984C88.0814 28.1124 87.7616 28.1065 87.9207 28.1032C87.9319 27.8183 87.9271 27.5511 87.9277 27.2388C87.9389 21.9397 87.9293 16.6406 87.9443 11.341C87.9459 10.753 88.038 10.1601 88.1365 9.57734C89.0449 4.21827 94.1768 0.851045 99.4336 2.04112C103.253 2.90609 106.54 6.44845 106.616 10.5703L107.163 10.5441V10.5446Z" fill="white"/>
<path d="M87.7614 29.0148C87.7143 29.0148 87.6672 29.0137 87.62 29.0126L86.5098 28.9891V0.605214L88.876 0.558618L88.8706 1.49268C88.8706 1.51678 88.8626 2.89645 88.8556 4.44161C90.4511 2.44227 92.3123 1.43591 93.7814 0.929243C96.3211 0.0540974 99.202 0.164963 101.686 1.23292C105.571 2.90395 108.138 6.65197 108.074 10.5591L108.061 11.4128L105.723 11.5242L105.706 10.5869C105.674 8.84733 104.977 7.10507 103.742 5.68095C102.537 4.29218 100.936 3.31474 99.2331 2.92912C96.9156 2.40478 94.5703 2.83164 92.6293 4.13151C90.705 5.42012 89.4287 7.40822 89.035 9.72944C88.9413 10.2827 88.8567 10.8226 88.8556 11.3432C88.8476 14.2101 88.8465 17.1259 88.846 19.9457C88.8454 22.336 88.8444 24.8083 88.8395 27.2399C88.8395 27.3207 88.8395 27.3984 88.8395 27.4739C88.8401 27.6978 88.8406 27.9099 88.8315 28.1391L88.7972 28.996L87.9264 29.0132C88.0035 29.0105 88.0929 28.9939 88.1851 28.9596C88.048 29.0057 87.9055 29.0148 87.763 29.0148H87.7614Z" fill="white"/>
<path d="M130.755 27.9731L130.318 27.3539C130.287 27.3095 130.192 27.1745 129.989 26.6796L129.641 25.8265L154.097 15.3483L129.748 4.11651L130.469 1.78242L159.999 15.4677L158.065 16.2952C157.739 16.4344 157.428 16.5673 157.126 16.6958C156.439 16.9888 155.788 17.2657 155.149 17.5442C154.953 17.6299 154.758 17.722 154.552 17.82C154.282 17.948 154.003 18.0803 153.712 18.2003L130.754 27.9736L130.755 27.9731Z" fill="#2AB0B6"/>
</g>
<defs>
<clipPath id="clip0_204_5280">
<rect width="160" height="29.0463" fill="white"/>
</clipPath>
</defs>
</svg>
