<svg width="13" height="13" viewBox="0 0 13 13" fill="none" xmlns="http://www.w3.org/2000/svg">
<path d="M2.50033 4.25H10.6308L10.9225 3.08333H3.66699V1.91666H11.6703C11.759 1.91667 11.8465 1.93688 11.9262 1.97578C12.0059 2.01467 12.0756 2.07122 12.1302 2.14112C12.1847 2.21103 12.2226 2.29245 12.241 2.37919C12.2594 2.46594 12.2577 2.55574 12.2362 2.64175L10.7778 8.47508C10.7462 8.60122 10.6734 8.71319 10.5709 8.7932C10.4683 8.8732 10.342 8.91666 10.212 8.91666H1.91699C1.76228 8.91666 1.61391 8.85521 1.50451 8.74581C1.39512 8.63641 1.33366 8.48804 1.33366 8.33333V1.33333H0.166992V0.166664H1.91699C2.0717 0.166664 2.22007 0.228122 2.32947 0.337518C2.43887 0.446915 2.50033 0.595288 2.50033 0.749997V4.25ZM2.50033 12.4167C2.19091 12.4167 1.89416 12.2937 1.67537 12.075C1.45658 11.8562 1.33366 11.5594 1.33366 11.25C1.33366 10.9406 1.45658 10.6438 1.67537 10.425C1.89416 10.2062 2.19091 10.0833 2.50033 10.0833C2.80974 10.0833 3.10649 10.2062 3.32528 10.425C3.54408 10.6438 3.66699 10.9406 3.66699 11.25C3.66699 11.5594 3.54408 11.8562 3.32528 12.075C3.10649 12.2937 2.80974 12.4167 2.50033 12.4167ZM9.50033 12.4167C9.19091 12.4167 8.89416 12.2937 8.67537 12.075C8.45658 11.8562 8.33366 11.5594 8.33366 11.25C8.33366 10.9406 8.45658 10.6438 8.67537 10.425C8.89416 10.2062 9.19091 10.0833 9.50033 10.0833C9.80974 10.0833 10.1065 10.2062 10.3253 10.425C10.5441 10.6438 10.667 10.9406 10.667 11.25C10.667 11.5594 10.5441 11.8562 10.3253 12.075C10.1065 12.2937 9.80974 12.4167 9.50033 12.4167Z" fill="white"/>
</svg>
