<svg width="12" height="12" viewBox="0 0 12 12" fill="none" xmlns="http://www.w3.org/2000/svg">
<path d="M7.17495 6.00001L10.7583 2.42501C10.9152 2.26809 11.0034 2.05526 11.0034 1.83334C11.0034 1.61142 10.9152 1.39859 10.7583 1.24167C10.6014 1.08475 10.3885 0.996597 10.1666 0.996597C9.9447 0.996597 9.73187 1.08475 9.57495 1.24167L5.99995 4.82501L2.42495 1.24167C2.26803 1.08475 2.0552 0.996597 1.83328 0.996597C1.61136 0.996597 1.39854 1.08475 1.24162 1.24167C1.0847 1.39859 0.996539 1.61142 0.996539 1.83334C0.996539 2.05526 1.0847 2.26809 1.24162 2.42501L4.82495 6.00001L1.24162 9.57501C1.16351 9.65248 1.10151 9.74464 1.05921 9.84619C1.0169 9.94774 0.995117 10.0567 0.995117 10.1667C0.995117 10.2767 1.0169 10.3856 1.05921 10.4872C1.10151 10.5887 1.16351 10.6809 1.24162 10.7583C1.31908 10.8364 1.41125 10.8984 1.5128 10.9408C1.61435 10.9831 1.72327 11.0048 1.83328 11.0048C1.94329 11.0048 2.05221 10.9831 2.15376 10.9408C2.25531 10.8984 2.34748 10.8364 2.42495 10.7583L5.99995 7.17501L9.57495 10.7583C9.65242 10.8364 9.74459 10.8984 9.84614 10.9408C9.94769 10.9831 10.0566 11.0048 10.1666 11.0048C10.2766 11.0048 10.3855 10.9831 10.4871 10.9408C10.5886 10.8984 10.6808 10.8364 10.7583 10.7583C10.8364 10.6809 10.8984 10.5887 10.9407 10.4872C10.983 10.3856 11.0048 10.2767 11.0048 10.1667C11.0048 10.0567 10.983 9.94774 10.9407 9.84619C10.8984 9.74464 10.8364 9.65248 10.7583 9.57501L7.17495 6.00001Z" fill="#6E7A8C"/>
</svg>
