<svg width="27" height="27" viewBox="0 0 27 27" fill="none" xmlns="http://www.w3.org/2000/svg">
<path d="M2.52338 7.71075L12.9262 1.47375C13.1011 1.36885 13.3012 1.31343 13.5051 1.31343C13.709 1.31343 13.909 1.36885 14.0839 1.47375L24.4766 7.71188C24.56 7.76185 24.629 7.83257 24.6769 7.91715C24.7248 8.00174 24.75 8.09729 24.75 8.1945V22.5C24.75 22.7984 24.6315 23.0845 24.4205 23.2955C24.2095 23.5065 23.9234 23.625 23.625 23.625H3.375C3.07663 23.625 2.79048 23.5065 2.5795 23.2955C2.36853 23.0845 2.25 22.7984 2.25 22.5V8.19338C2.24998 8.09617 2.27515 8.00061 2.32306 7.91603C2.37097 7.83144 2.43999 7.76072 2.52338 7.71075ZM20.6393 9.2745L13.5686 15.3934L6.35287 9.26775L4.89713 10.9823L13.5821 18.3566L22.1107 10.9766L20.6393 9.2745Z" fill="url(#paint0_linear_430_1275)"/>
<defs>
<linearGradient id="paint0_linear_430_1275" x1="21.2961" y1="21.5967" x2="5.6761" y2="21.1516" gradientUnits="userSpaceOnUse">
<stop stop-color="#14BEF0"/>
</linearGradient>
</defs>
</svg>
