<svg width="22" height="20" viewBox="0 0 22 20" fill="none" xmlns="http://www.w3.org/2000/svg">
<path d="M13.121 8.48C12.9334 8.29253 12.6791 8.18722 12.414 8.18722C12.1488 8.18722 11.8945 8.29253 11.707 8.48L11 9.186C10.8155 9.37702 10.5948 9.52939 10.3508 9.63421C10.1068 9.73903 9.84432 9.7942 9.57876 9.7965C9.3132 9.79881 9.04984 9.74821 8.80405 9.64765C8.55826 9.54708 8.33496 9.39858 8.14717 9.21079C7.95938 9.02301 7.81088 8.7997 7.71032 8.55391C7.60975 8.30812 7.55915 8.04476 7.56146 7.7792C7.56377 7.51364 7.61894 7.2512 7.72376 7.00719C7.82857 6.76319 7.98094 6.5425 8.17196 6.358L13.802 0.726004C15.1349 0.42283 16.5295 0.547602 17.7874 1.08258C19.0453 1.61755 20.1026 2.5355 20.8088 3.7059C21.5151 4.87629 21.8344 6.23955 21.7213 7.60183C21.6082 8.96412 21.0685 10.2561 20.179 11.294L18.071 13.429L13.121 8.479V8.48ZM2.16096 2.468C3.19572 1.43338 4.54918 0.777983 6.00252 0.60777C7.45586 0.437557 8.92414 0.762479 10.17 1.53L6.75696 4.944C6.01776 5.68173 5.59639 6.6793 5.5829 7.72356C5.5694 8.76782 5.96485 9.77595 6.68474 10.5325C7.40463 11.2891 8.39187 11.7342 9.43551 11.7725C10.4792 11.8109 11.4964 11.4396 12.27 10.738L12.414 10.601L16.657 14.843L12.414 19.086C12.0389 19.4609 11.5303 19.6716 11 19.6716C10.4696 19.6716 9.96102 19.4609 9.58596 19.086L2.15996 11.66C0.941092 10.441 0.256348 8.78782 0.256348 7.064C0.256348 5.34019 0.941092 3.68697 2.15996 2.468H2.16096Z" fill="#76FFC6"/>
</svg>
