<svg width="30" height="30" viewBox="0 0 30 30" fill="none" xmlns="http://www.w3.org/2000/svg">
<path d="M21.3333 22.9167V21.3333H16.5833V16.5833H21.3333V19.75H24.5V22.9167H22.9167V26.0833H19.75V29.25H16.5833V24.5H19.75V22.9167H21.3333ZM29.25 29.25H22.9167V26.0833H26.0833V22.9167H29.25V29.25ZM0.75 0.75H13.4167V13.4167H0.75V0.75ZM16.5833 0.75H29.25V13.4167H16.5833V0.75ZM0.75 16.5833H13.4167V29.25H0.75V16.5833ZM24.5 16.5833H29.25V19.75H24.5V16.5833ZM5.5 5.5V8.66667H8.66667V5.5H5.5ZM5.5 21.3333V24.5H8.66667V21.3333H5.5ZM21.3333 5.5V8.66667H24.5V5.5H21.3333Z" fill="url(#paint0_linear_446_426)"/>
<defs>
<linearGradient id="paint0_linear_446_426" x1="24.875" y1="26.6591" x2="5.08946" y2="26.1" gradientUnits="userSpaceOnUse">
<stop stop-color="#2AB0B6"/>
<stop offset="1" stop-color="#12AAB0"/>
</linearGradient>
</defs>
</svg>
