<svg width="16" height="20" viewBox="0 0 16 20" fill="none" xmlns="http://www.w3.org/2000/svg">
<path d="M2 0C2 0.513 2.49 1 3 1H13C13.513 1 14 0.51 14 0H16C16 1.657 14.657 3 13 3H9L9.001 5.062C12.947 5.555 16 8.921 16 13V19C16 19.552 15.552 20 15 20H1C0.448 20 0 19.552 0 19V13C0 8.92 3.054 5.554 7 5.062V3H3C1.34 3 0 1.66 0 0H2ZM8 9C5.79 9 4 10.79 4 13C4 15.21 5.79 17 8 17C10.21 17 12 15.21 12 13C12 12.258 11.798 11.564 11.446 10.968L8.707 13.708L8.613 13.79C8.221 14.095 7.653 14.068 7.293 13.707C6.903 13.317 6.903 12.683 7.293 12.293L10.032 9.553C9.436 9.203 8.742 9 8 9Z" fill="#FF7B9A"/>
</svg>
